<?xml version="1.0" encoding="UTF-8" standalone="no"?>
<svg
   xmlns:dc="http://purl.org/dc/elements/1.1/"
   xmlns:cc="http://creativecommons.org/ns#"
   xmlns:rdf="http://www.w3.org/1999/02/22-rdf-syntax-ns#"
   xmlns:svg="http://www.w3.org/2000/svg"
   xmlns="http://www.w3.org/2000/svg"
   id="svg115"
   height="35.700001mm"
   width="18.77mm"
   version="1.0">
  <metadata
     id="metadata119">
    <rdf:RDF>
      <cc:Work
         rdf:about="">
        <dc:format>image/svg+xml</dc:format>
        <dc:type
           rdf:resource="http://purl.org/dc/dcmitype/StillImage" />
      </cc:Work>
    </rdf:RDF>
  </metadata>
  <defs
     id="defs9">
    <clipPath
       id="clipEmfPath1"
       clipPathUnits="userSpaceOnUse">
      <path
         id="path2"
         d="M 0,0 L 70.876319,0 L 70.876319,134.87299 L 0,134.87299 z" />
    </clipPath>
    <clipPath
       id="clipEmfPath2"
       clipPathUnits="userSpaceOnUse">
      <path
         id="path5"
         d="M 0,0 V 134.87305 H 70.876953 V 0 Z" />
    </clipPath>
    <pattern
       y="0"
       x="0"
       height="6"
       width="6"
       patternUnits="userSpaceOnUse"
       id="EMFhbasepattern" />
  </defs>
  <g
     id="g11"
     clip-path="url(#clipEmfPath1)" />
  <path
     id="path13"
     d="  M 0,0   M 37.08178,0.53019114   L 37.08178,0.53019114   C 31.012708,0.53019114 26.076865,5.4786418 26.076865,11.57584   C 26.076865,17.660414 31.012708,22.634112 37.08178,22.634112   L 40.519242,22.634112   C 40.607382,22.634112 40.670339,22.646736 40.733297,22.709854   C 40.771071,22.772972 40.821437,22.83609 40.796254,22.924455   C 40.645157,25.171456 39.97781,30.650097 37.270652,34.841132   C 39.18455,33.768126 43.528596,30.536485 45.303988,22.83609   C 45.354354,22.709854 45.455085,22.634112 45.581,22.634112   L 49.572485,22.634112   C 55.654149,22.634112 60.589992,17.660414 60.589992,11.57584   C 60.589992,5.4786418 55.654149,0.53019114 49.572485,0.53019114   L 37.08178,0.53019114   z  M 36.427025,35.85102   L 36.427025,35.85102   C 36.338885,35.85102 36.263337,35.800526 36.20038,35.724784   C 36.137422,35.611172 36.137422,35.484936 36.20038,35.383947   C 39.222324,31.407513 40.015585,25.726894 40.229639,23.176927   L 37.08178,23.176927   C 30.697922,23.176927 25.51025,17.976004 25.51025,11.57584   C 25.51025,5.188299 30.697922,-0.012623599 37.08178,-0.012623599   L 49.572485,-0.012623599   C 55.956343,-0.012623599 61.156606,5.188299 61.156606,11.57584   C 61.156606,17.976004 55.956343,23.176927 49.572485,23.176927   L 45.807646,23.176927   C 44.53591,28.440968 42.118355,31.57162 40.317779,33.275806   C 38.303149,35.194593 36.603306,35.800526 36.515165,35.825773   C 36.489983,35.825773 36.452208,35.85102 36.427025,35.85102   z "
     clip-path="url(#clipEmfPath1)"
     style="fill:#000000;fill-rule:nonzero;fill-opacity:1;stroke:none;" />
  <path
     id="path15"
     d="  M 35.986325,58.611368   L 35.986325,58.611368   C 35.986325,58.611368 40.481468,68.356786 49.295473,72.270102   L 47.054198,80.058862   C 47.054198,80.058862 37.988364,77.28167 35.142699,71.436944   L 35.986325,58.611368   z "
     clip-path="url(#clipEmfPath1)"
     style="fill:#00747a;fill-rule:nonzero;fill-opacity:1;stroke:none;" />
  <path
     id="path17"
     d="  M 35.444893,71.373826   L 35.444893,71.373826   C 37.937998,76.448513 45.354354,79.17521 46.865326,79.705401   L 48.968096,72.421585   C 41.891709,69.164697 37.560255,62.133352 36.20038,59.621256   L 35.444893,71.373826   z  M 47.029015,80.336581   L 47.029015,80.336581   C 47.003832,80.336581 46.991241,80.336581 46.966058,80.336581   C 46.940875,80.311334 44.636642,79.604413 42.030215,78.190569   C 39.600067,76.865092 36.401843,74.630715 34.89087,71.537933   C 34.878279,71.500062 34.878279,71.449568 34.878279,71.411697   L 35.696722,58.598745   C 35.709314,58.472509 35.797454,58.358896 35.923368,58.346273   C 36.049282,58.295778 36.175197,58.358896 36.238154,58.485132   C 36.275928,58.598745 40.796254,68.192679 49.421388,72.01763   C 49.547302,72.068124 49.610259,72.206984 49.572485,72.33322   L 47.306026,80.147227   C 47.280844,80.210345 47.243069,80.273463 47.180112,80.311334   C 47.129746,80.336581 47.091972,80.336581 47.029015,80.336581   z "
     clip-path="url(#clipEmfPath1)"
     style="fill:#000000;fill-rule:nonzero;fill-opacity:1;stroke:none;" />
  <path
     id="path19"
     d="  M 2.3545986,91.38223   L 2.3545986,91.38223   C 2.3420072,91.38223 2.3168243,91.38223 2.2916414,91.38223   C 1.7502097,91.38223 1.3472837,91.230747 1.1458207,90.965651   C 0.80585193,90.536449 0.80585193,90.145117 0.86880911,89.892645   C 1.0702721,89.109982 2.0901784,88.642909 2.1279527,88.630286   C 2.2538671,88.567168 2.4175558,88.630286 2.480513,88.769145   C 2.5434701,88.895381 2.480513,89.072111 2.3545986,89.135229   C 2.1279527,89.236218 1.5235638,89.589679 1.4102409,90.031505   C 1.3724666,90.220859 1.4354237,90.410213 1.586521,90.624814   C 1.6242953,90.662685 1.7753925,90.814168 2.2916414,90.839415   C 3.6389251,90.839415 6.3083096,89.905269 8.0459278,87.759257   C 8.1340679,87.633021 8.3229394,87.620398 8.4236709,87.721386   C 8.5495853,87.822375 8.5747682,87.999106 8.4614452,88.125342   C 6.7490099,90.246106 4.0418511,91.38223 2.3545986,91.38223   z "
     clip-path="url(#clipEmfPath1)"
     style="fill:#000000;fill-rule:nonzero;fill-opacity:1;stroke:none;" />
  <path
     id="path21"
     d="  M 8.0711107,96.734636   L 8.0711107,96.734636   C 7.7311419,96.734636 7.4541303,96.621023 7.2652588,96.456917   C 6.5979127,95.863607 6.7490099,94.626495 7.6304104,93.515618   C 8.5495853,92.379494 9.1791571,91.407477 9.5569002,90.599567   C 7.7689162,92.417365 4.2055397,93.843832 2.971579,93.27577   C 2.5308787,93.073792 2.3797815,92.770826 2.3420072,92.543601   C 2.1531356,91.811432 2.7952989,90.965651 2.8582561,90.852039   C 2.971579,90.75105 3.1352677,90.725803 3.261182,90.814168   C 3.3870964,90.915157 3.4122793,91.091887 3.2989563,91.218123   C 3.1604505,91.407477 2.7827074,92.01341 2.8834389,92.417365   C 2.9086218,92.50573 2.9463961,92.64459 3.1982248,92.770826   C 4.356637,93.301017 8.8643712,91.344359 9.8465032,89.236218   C 9.9094604,89.109982 10.085741,89.021617 10.224246,89.072111   C 10.375344,89.109982 10.476075,89.261465 10.463484,89.400325   C 10.400526,90.473331 9.5946745,91.950292 8.0711107,93.869079   C 7.328216,94.815849 7.2652588,95.699501 7.6304104,96.040338   C 8.0711107,96.419046 9.1413828,96.103456 10.601989,94.588624   C 13.397288,91.659949 15.33637,84.843206 15.68893,83.517728   L 9.3050715,80.374452   C 8.7384568,81.321222 6.4719983,84.780088 2.0398127,86.560015   C 1.7124353,86.686251 0.81844336,87.153324 0.59179751,87.746634   C 0.52884033,87.973858 0.5540232,88.18846 0.65475469,88.415684   C 0.74289475,88.567168 0.90658342,88.642909 1.1458207,88.693404   C 2.3797815,88.895381 4.9988002,87.696139 6.5349555,86.231802   C 6.6608698,86.118189 6.8245585,86.118189 6.9378814,86.231802   C 7.0386129,86.358038 7.0386129,86.522145 6.9378814,86.623133   C 5.2128547,88.251578 2.4679215,89.463443 1.0576807,89.236218   C 0.52884033,89.147853 0.2770116,88.882757 0.17628011,88.668156   C -0.012591436,88.289448 -0.037774309,87.935988 0.062957182,87.55728   C 0.42810884,86.61051 1.7753925,86.055071 1.8383497,86.042448   C 6.6860527,84.08579 8.9273284,79.920003 8.9525113,79.869508   C 9.0154684,79.743272 9.1791571,79.680154 9.3050715,79.743272   L 16.12963,83.113773   C 16.255544,83.176891 16.318502,83.303127 16.280727,83.429363   C 16.192587,83.7702 14.20314,91.634702 11.004915,94.979956   C 9.7709546,96.267563 8.7762312,96.734636 8.0711107,96.734636   z "
     clip-path="url(#clipEmfPath1)"
     style="fill:#000000;fill-rule:nonzero;fill-opacity:1;stroke:none;" />
  <path
     id="path23"
     d="  M 31.768194,53.524058   L 31.768194,53.524058   L 27.021222,53.524058   C 26.857534,53.524058 26.731619,53.397822 26.731619,53.246339   L 26.731619,50.835231   C 26.202779,50.557512 24.654032,49.572872 24.477752,47.338495   C 24.465161,47.187011 24.591075,47.048152 24.729581,47.048152   C 24.905861,47.022905 25.031776,47.149141 25.056958,47.300624   C 25.220647,49.572872 27.046405,50.368158 27.134545,50.393405   C 27.235277,50.431276 27.298234,50.532265 27.298234,50.658501   L 27.298234,52.981243   L 31.491182,52.981243   L 31.491182,50.708995   C 31.491182,50.557512 31.579322,50.456523 31.73042,50.431276   C 31.856334,50.406029 34.727182,49.926332 34.727182,46.555832   C 34.727182,45.444955 34.311664,44.536056 33.530995,43.879629   C 32.183711,42.743505 29.967619,42.491033 28.494421,42.768752   C 28.330732,42.793999 28.179635,42.680387 28.154452,42.541527   C 28.14186,42.390044 28.242592,42.238561 28.393689,42.225937   C 30.043167,41.922971 32.397766,42.20069 33.883555,43.437803   C 34.815322,44.220466 35.268613,45.268224 35.268613,46.555832   C 35.268613,49.800096 32.838466,50.721619 32.045206,50.910973   L 32.045206,53.246339   C 32.045206,53.397822 31.919291,53.524058 31.768194,53.524058   z "
     clip-path="url(#clipEmfPath1)"
     style="fill:#000000;fill-rule:nonzero;fill-opacity:1;stroke:none;" />
  <path
     id="path25"
     d="  M 30.572008,84.287768   L 30.572008,84.287768   C 30.672739,84.287768 30.786062,84.376133 30.823836,84.477122   L 43.150852,118.0054   C 45.769871,116.20022 50.365746,113.01908 53.815799,110.70896   C 49.547302,101.88506 36.11224,74.062653 34.97901,71.70204   L 24.037052,71.70204   L 11.156013,117.28585   L 24.528118,117.28585   C 26.253145,107.31321 30.257222,84.754841 30.294996,84.527616   C 30.320179,84.40138 30.42091,84.313015 30.546825,84.287768   C 30.546825,84.287768 30.546825,84.287768 30.572008,84.287768   z  M 42.999755,118.73757   L 42.999755,118.73757   C 42.974572,118.73757 42.936798,118.72494 42.911615,118.72494   C 42.836067,118.6997 42.773109,118.63658 42.747926,118.54821   L 30.660148,85.66374   C 29.854296,90.220859 26.542748,108.97953 25.031776,117.62669   C 25.006593,117.75293 24.880678,117.85392 24.754764,117.85392   L 10.77827,117.85392   C 10.690129,117.85392 10.601989,117.81605 10.564215,117.75293   C 10.501258,117.68981 10.476075,117.58882 10.501258,117.50046   L 23.558577,71.348579   C 23.596352,71.222343 23.709675,71.133978 23.835589,71.133978   L 35.142699,71.133978   C 35.268613,71.133978 35.356753,71.197096 35.394528,71.310708   C 35.545625,71.601051 50.113917,101.75883 54.420188,110.68371   C 54.483145,110.80995 54.445371,110.96143 54.332048,111.03717   C 50.730897,113.43566 45.795054,116.86928 43.163444,118.67445   C 43.100487,118.72494 43.062712,118.73757 42.999755,118.73757   z "
     clip-path="url(#clipEmfPath1)"
     style="fill:#000000;fill-rule:nonzero;fill-opacity:1;stroke:none;" />
  <path
     id="path27"
     d="  M 36.150014,55.922542   L 36.150014,55.922542   C 36.150014,55.922542 36.427025,53.246339 32.775509,53.246339   L 25.636164,53.246339   C 25.636164,53.246339 21.959465,52.892878 19.932244,57.147031   C 17.867248,61.413807 9.1791571,79.995744 9.1791571,79.995744   L 16.028899,83.366245   L 23.621535,66.589482   L 23.835589,71.436944   L 35.142699,71.436944   L 36.150014,55.922542   z "
     clip-path="url(#clipEmfPath1)"
     style="fill:#00747a;fill-rule:nonzero;fill-opacity:1;stroke:none;" />
  <path
     id="path29"
     d="  M 9.5569002,79.869508   L 9.5569002,79.869508   L 15.877801,82.987537   L 23.344523,66.488494   C 23.40748,66.362258 23.533395,66.29914 23.659309,66.324387   C 23.785223,66.362258 23.898546,66.463246 23.898546,66.589482   L 24.100009,71.133978   L 34.89087,71.133978   L 35.860411,55.922542   C 35.860411,55.897294 35.860411,55.897294 35.860411,55.897294   C 35.885594,55.884671 35.948551,55.064137 35.33157,54.40771   C 34.827913,53.839648 33.946512,53.549305 32.775509,53.549305   L 25.636164,53.549305   C 25.623573,53.549305 25.623573,53.549305 25.59839,53.549305   C 25.472476,53.524058 22.110562,53.246339 20.184073,57.273267   C 18.270174,61.199206 10.601989,77.647755 9.5569002,79.869508   z  M 16.028899,83.643964   L 16.028899,83.643964   C 15.965941,83.643964 15.915576,83.643964 15.902984,83.618717   L 9.0532428,80.248216   C 8.9273284,80.185098 8.8643712,80.020991 8.9273284,79.894755   C 9.0154684,79.705401 17.640602,61.2497 19.680415,57.020795   C 21.707636,52.791889 25.346561,52.955996 25.636164,52.981243   L 32.775509,52.981243   C 34.122793,52.981243 35.142699,53.334704 35.772271,54.029002   C 36.515165,54.849536 36.427025,55.859424 36.427025,55.960412   L 35.444893,71.436944   C 35.419711,71.575804 35.293796,71.70204 35.142699,71.70204   L 23.835589,71.70204   C 23.684492,71.70204 23.558577,71.575804 23.558577,71.436944   L 23.394889,67.776101   L 16.280727,83.492481   C 16.230361,83.555599 16.167404,83.59347 16.104447,83.643964   C 16.091856,83.643964 16.04149,83.643964 16.028899,83.643964   z "
     clip-path="url(#clipEmfPath1)"
     style="fill:#000000;fill-rule:nonzero;fill-opacity:1;stroke:none;" />
  <path
     id="path31"
     d="  M 19.630049,117.28585   L 19.630049,117.28585   L 24.528118,117.28585   C 24.654032,116.6168 24.994001,114.50866 24.150375,113.37254   C 23.810406,112.91809 23.331932,112.67824 22.677177,112.64037   C 22.072788,112.6025 21.543948,112.79185 21.078064,113.18318   C 19.944835,114.25619 19.680415,116.51581 19.630049,117.28585   z  M 24.754764,117.85392   L 24.754764,117.85392   L 19.340446,117.85392   C 19.252306,117.85392 19.189349,117.84129 19.126392,117.77817   C 19.088618,117.72768 19.050843,117.65194 19.050843,117.58882   C 19.050843,117.43734 19.126392,114.24357 20.700321,112.79185   C 21.266936,112.26166 21.946874,112.03444 22.714951,112.07231   C 23.533395,112.13543 24.162966,112.45102 24.603667,113.04433   C 25.749487,114.62227 25.056958,117.5257 25.031776,117.65194   C 24.994001,117.77817 24.880678,117.85392 24.754764,117.85392   z "
     clip-path="url(#clipEmfPath1)"
     style="fill:#000000;fill-rule:nonzero;fill-opacity:1;stroke:none;" />
  <path
     id="path33"
     d="  M 50.5798,107.6793   L 50.5798,107.6793   C 50.290197,107.6793 49.988002,107.75504 49.673217,107.90652   C 49.131785,108.22211 48.816999,108.63869 48.665902,109.20675   C 48.313341,110.70896 49.408796,112.72874 49.824314,113.42303   L 53.815799,110.70896   C 53.513605,110.07778 52.493698,108.22211 51.171597,107.75504   C 50.982726,107.69192 50.793854,107.6793 50.5798,107.6793   z  M 49.736174,114.09208   L 49.736174,114.09208   C 49.723582,114.09208 49.698399,114.09208 49.698399,114.09208   C 49.610259,114.06684 49.547302,114.02897 49.509528,113.96585   C 49.421388,113.86486 47.633404,111.15079 48.12447,109.08052   C 48.313341,108.34835 48.728859,107.80553 49.408796,107.42682   C 50.05096,107.08599 50.705714,106.99762 51.360469,107.23747   C 53.186227,107.86865 54.382414,110.58272 54.445371,110.68371   C 54.483145,110.80995 54.445371,110.96143 54.332048,111.03717   L 49.912454,114.05421   C 49.849497,114.06684 49.799131,114.09208 49.736174,114.09208   z "
     clip-path="url(#clipEmfPath1)"
     style="fill:#000000;fill-rule:nonzero;fill-opacity:1;stroke:none;" />
  <path
     id="path35"
     d="  M 63.045322,113.80174   L 63.045322,113.80174   C 62.654987,113.92798 62.440933,114.02897 62.440933,114.02897   C 62.440933,114.02897 57.001432,116.59156 55.263814,113.04433   C 55.074943,112.66562 54.6972,111.88295 54.168359,110.80995   C 50.542026,113.23368 45.581,116.65467 42.999755,118.44723   L 47.658587,131.13394   C 47.658587,131.13394 48.099287,133.01486 50.390928,131.85349   C 52.115955,130.99508 61.055875,124.69591 65.462878,121.56525   C 63.259376,119.22989 62.94459,115.98562 63.045322,113.80174   z "
     clip-path="url(#clipEmfPath1)"
     style="fill:#00747a;fill-rule:nonzero;fill-opacity:1;stroke:none;" />
  <path
     id="path37"
     d="  M 43.339724,118.54821   L 43.339724,118.54821   L 47.935598,131.0582   C 47.935598,131.0582 47.935598,131.07082 47.935598,131.07082   C 47.935598,131.07082 48.074104,131.62626 48.56517,131.85349   C 48.980687,132.04284 49.547302,131.95448 50.265014,131.60102   C 51.964858,130.75523 60.967735,124.43081 65.04736,121.52738   C 63.108279,119.29301 62.717945,116.4022 62.755719,114.19307   C 62.604622,114.25619 62.541664,114.28144 62.541664,114.30668   C 62.478707,114.31931 56.850335,116.90715 55.011986,113.17056   C 54.835705,112.82972 54.52092,112.16067 54.067628,111.2139   C 50.5798,113.56189 45.93356,116.76829 43.339724,118.54821   z  M 49.068828,132.50991   L 49.068828,132.50991   C 48.791816,132.50991 48.539987,132.45942 48.313341,132.35843   C 47.633404,132.04284 47.431941,131.34854 47.381575,131.22231   L 42.747926,118.54821   C 42.684969,118.42198 42.747926,118.29574 42.848658,118.22   C 45.480268,116.4022 50.416111,112.98121 54.017262,110.58272   C 54.080219,110.53223 54.168359,110.51961 54.256499,110.53223   C 54.332048,110.55748 54.395005,110.62059 54.420188,110.68371   C 54.949028,111.75672 55.326771,112.53938 55.515643,112.91809   C 57.102164,116.17498 62.252061,113.80174 62.315019,113.77649   C 62.315019,113.77649 62.541664,113.67551 62.94459,113.52402   C 63.03273,113.49877 63.133462,113.49877 63.196419,113.56189   C 63.284559,113.61239 63.322334,113.71338 63.322334,113.80174   C 63.221602,116.01087 63.548979,119.11628 65.676932,121.3759   C 65.714706,121.43902 65.752481,121.52738 65.739889,121.60312   C 65.739889,121.69149 65.689524,121.75461 65.626566,121.79248   C 60.715906,125.28922 52.216687,131.26018 50.516843,132.10596   C 49.975411,132.38368 49.484345,132.50991 49.068828,132.50991   z "
     clip-path="url(#clipEmfPath1)"
     style="fill:#000000;fill-rule:nonzero;fill-opacity:1;stroke:none;" />
  <path
     id="path39"
     d="  M 27.638203,126.32435   L 27.638203,126.32435   L 26.517565,125.95827   C 26.517565,125.95827 23.533395,125.13773 23.999278,121.98183   C 24.062235,121.56525 24.339247,119.93681 24.754764,117.58882   L 10.77827,117.58882   L 6.7616013,131.76512   C 6.7616013,131.76512 5.7165121,134.63068 8.8265969,134.63068   L 26.253145,134.63068   C 25.749487,131.51265 26.895308,128.09165 27.638203,126.32435   z "
     clip-path="url(#clipEmfPath1)"
     style="fill:#00747a;fill-rule:nonzero;fill-opacity:1;stroke:none;" />
  <path
     id="path41"
     d="  M 10.979733,117.85392   L 10.979733,117.85392   L 7.0386129,131.82824   C 7.0134301,131.87873 6.6230955,132.98961 7.126753,133.70916   C 7.416356,134.12573 7.9829707,134.34034 8.8265969,134.34034   L 25.913176,134.34034   C 25.560616,131.43691 26.542748,128.29363 27.26046,126.48846   L 26.442016,126.23599   C 26.416834,126.23599 23.218609,125.31446 23.722266,121.94396   C 23.785223,121.56525 23.999278,120.21453 24.414795,117.85392   L 10.979733,117.85392   z  M 26.253145,134.9084   L 26.253145,134.9084   L 8.8265969,134.9084   C 7.7940991,134.9084 7.0637958,134.60543 6.6608698,134.02475   C 5.9935237,133.07798 6.4971812,131.72725 6.5097726,131.66413   L 10.501258,117.50046   C 10.539032,117.37422 10.652355,117.28585 10.77827,117.28585   L 24.754764,117.28585   C 24.842904,117.28585 24.905861,117.33635 24.968818,117.39947   C 25.031776,117.46258 25.056958,117.53833 25.031776,117.62669   C 24.591075,120.15141 24.339247,121.65362 24.276289,122.03233   C 23.84818,124.88526 26.479791,125.66792 26.605705,125.70579   L 27.713751,126.04663   C 27.776709,126.07188 27.839666,126.135 27.890032,126.19811   C 27.902623,126.27386 27.927806,126.36222 27.890032,126.42534   C 27.17232,128.1674 26.03909,131.5379 26.517565,134.59281   C 26.542748,134.65593 26.504974,134.73167 26.454608,134.79479   C 26.391651,134.8579 26.328693,134.9084 26.253145,134.9084   z "
     clip-path="url(#clipEmfPath1)"
     style="fill:#000000;fill-rule:nonzero;fill-opacity:1;stroke:none;" />
  <path
     id="path43"
     d="  M 26.479791,134.34034   L 26.479791,134.34034   L 29.98021,134.34034   C 30.005393,134.34034 30.987525,134.41608 31.99484,134.12573   C 33.279166,133.74703 34.00947,132.92649 34.160567,131.72725   C 34.513127,128.84907 31.64228,127.87705 31.604505,127.85181   L 27.776709,126.65256   C 27.08418,128.41987 26.102048,131.50003 26.479791,134.34034   z  M 30.294996,134.9084   L 30.294996,134.9084   C 30.093533,134.9084 29.967619,134.9084 29.942436,134.9084   L 26.253145,134.9084   C 26.102048,134.9084 26.001316,134.79479 25.976133,134.66855   C 25.447293,131.50003 26.630888,128.00329 27.361191,126.21074   C 27.424148,126.07188 27.575246,126.00876 27.713751,126.04663   L 31.793377,127.33424   C 31.805968,127.34686 35.130107,128.47036 34.727182,131.79037   C 34.374621,134.66855 31.327494,134.9084 30.294996,134.9084   z "
     clip-path="url(#clipEmfPath1)"
     style="fill:#000000;fill-rule:nonzero;fill-opacity:1;stroke:none;" />
  <path
     id="path45"
     d="  M 63.322334,113.9911   L 63.322334,113.9911   C 63.234193,116.11186 63.574162,119.01529 65.500652,121.19917   C 66.873119,120.21453 67.754519,119.58335 67.754519,119.58335   C 67.792293,119.5581 71.35567,116.86928 70.083935,114.19307   C 69.07662,112.07231 64.858489,113.42303 63.322334,113.9911   z  M 65.462878,121.8556   L 65.462878,121.8556   C 65.374738,121.8556 65.31178,121.81773 65.248823,121.75461   C 63.007548,119.35612 62.654987,116.08661 62.755719,113.77649   C 62.755719,113.67551 62.843859,113.56189 62.94459,113.52402   C 64.833306,112.80448 69.366223,111.37801 70.587592,113.9406   C 71.217164,115.25345 70.965335,116.71779 69.895063,118.19475   C 69.089211,119.30563 68.132262,120.02518 68.081896,120.05042   C 68.081896,120.05042 67.124947,120.74472 65.626566,121.79248   C 65.563609,121.84297 65.525835,121.8556 65.462878,121.8556   z "
     clip-path="url(#clipEmfPath2)"
     style="fill:#000000;fill-rule:nonzero;fill-opacity:1;stroke:none;" />
  <path
     id="path47"
     d="  M 23.621535,66.892449   L 23.621535,66.892449   C 23.58376,66.892449 23.533395,66.867202 23.49562,66.841954   C 23.344523,66.778836 23.281566,66.61473 23.369706,66.488494   L 26.102048,60.744756   C 26.190188,60.593273 26.353876,60.530155 26.479791,60.61852   C 26.630888,60.681638 26.693845,60.845745 26.605705,60.971981   L 23.873363,66.715718   C 23.810406,66.829331 23.722266,66.892449 23.621535,66.892449   z "
     clip-path="url(#clipEmfPath1)"
     style="fill:#000000;fill-rule:nonzero;fill-opacity:1;stroke:none;" />
  <path
     id="path49"
     d="  M 14.958626,128.76071   L 14.958626,128.76071   C 14.958626,129.92208 14.02686,130.8436 12.868448,130.8436   C 11.722627,130.8436 10.77827,129.92208 10.77827,128.76071   C 10.77827,127.59933 11.722627,126.65256 12.868448,126.65256   C 14.02686,126.65256 14.958626,127.59933 14.958626,128.76071   z "
     clip-path="url(#clipEmfPath1)"
     style="fill:#ffffff;fill-rule:nonzero;fill-opacity:1;stroke:none;" />
  <path
     id="path51"
     d="  M 52.871441,124.97363   L 52.871441,124.97363   C 52.871441,126.135 51.939675,127.05652 50.793854,127.05652   C 49.635442,127.05652 48.691084,126.135 48.691084,124.97363   C 48.691084,123.81225 49.635442,122.86548 50.793854,122.86548   C 51.939675,122.86548 52.871441,123.81225 52.871441,124.97363   z "
     clip-path="url(#clipEmfPath1)"
     style="fill:#ffffff;fill-rule:nonzero;fill-opacity:1;stroke:none;" />
  <path
     id="path53"
     d="  M 29.690607,49.35827   L 29.690607,49.35827   C 29.476553,49.35827 27.650794,49.3204 26.945674,47.780321   C 26.882717,47.628837 26.920491,47.464731 27.071588,47.401613   C 27.210094,47.338495 27.386374,47.401613 27.449331,47.553096   C 28.028537,48.815456 29.665424,48.815456 29.690607,48.815456   C 29.841704,48.790208 29.967619,48.916444 29.98021,49.080551   C 29.98021,49.232034 29.854296,49.35827 29.690607,49.35827   L 29.690607,49.35827   z "
     clip-path="url(#clipEmfPath1)"
     style="fill:#000000;fill-rule:nonzero;fill-opacity:1;stroke:none;" />
  <path
     id="path55"
     d="  M 31.302311,48.159029   L 31.302311,48.159029   C 31.239354,48.159029 31.163805,48.121158 31.100848,48.05804   C 30.987525,47.944427 31.012708,47.780321 31.113439,47.679332   L 31.428225,47.363742   C 31.491182,47.313247 31.516365,47.237506 31.516365,47.174388   C 31.516365,47.086023 31.491182,47.022905 31.453408,46.959787   L 30.572008,46.050888   C 30.471276,45.949899 30.471276,45.760545 30.572008,45.646932   C 30.672739,45.545944 30.861611,45.545944 30.974933,45.646932   L 31.856334,46.581079   C 31.99484,46.732562 32.08298,46.959787 32.08298,47.174388   C 32.08298,47.401613 31.982248,47.616214 31.831151,47.755073   L 31.491182,48.070663   C 31.453408,48.121158 31.365268,48.159029 31.302311,48.159029   z "
     clip-path="url(#clipEmfPath1)"
     style="fill:#000000;fill-rule:nonzero;fill-opacity:1;stroke:none;" />
  <path
     id="path57"
     d="  M 32.334809,45.141988   L 32.334809,45.141988   C 32.297034,45.35659 32.43554,45.571191 32.649595,45.609062   C 32.87624,45.646932 33.090295,45.520696 33.128069,45.293472   C 33.178435,45.07887 33.027338,44.876893 32.800692,44.826398   C 32.586637,44.788528 32.372583,44.940011 32.334809,45.141988   z "
     clip-path="url(#clipEmfPath1)"
     style="fill:#000000;fill-rule:nonzero;fill-opacity:1;stroke:none;" />
  <path
     id="path59"
     d="  M 28.05372,45.255601   L 28.05372,45.255601   C 28.015946,45.457578 28.14186,45.697427 28.368506,45.71005   C 28.582561,45.760545 28.784024,45.634309 28.834389,45.39446   C 28.872164,45.192483 28.721066,44.977882 28.519603,44.940011   C 28.305549,44.889516 28.091495,45.041 28.05372,45.255601   z "
     clip-path="url(#clipEmfPath1)"
     style="fill:#000000;fill-rule:nonzero;fill-opacity:1;stroke:none;" />
  <path
     id="path61"
     d="  M 58.487222,79.427682   L 58.487222,79.427682   C 57.353993,79.427682 56.145215,79.301446 55.074943,79.137339   C 54.923845,79.112092 54.823114,78.973233 54.835705,78.821749   C 54.860888,78.657643 55.011986,78.54403 55.175674,78.594525   C 58.096887,79.048974 60.678132,78.922738 61.433618,78.278935   C 61.62249,78.127452 61.647672,78.001216 61.647672,77.91285   C 61.647672,77.811862 61.597307,77.748744 61.53435,77.660378   C 61.219564,77.370036 60.363346,77.306918 59.897463,77.332165   C 59.733774,77.344788 59.60786,77.218552 59.60786,77.054446   C 59.582677,76.902962 59.708591,76.776726 59.859689,76.764103   C 60.023377,76.764103 61.345478,76.713608 61.912093,77.269047   C 62.100964,77.433154 62.214287,77.660378 62.214287,77.91285   C 62.214287,78.215817 62.06319,78.480912 61.811361,78.720761   C 61.181789,79.238328 59.922646,79.427682 58.487222,79.427682   z "
     clip-path="url(#clipEmfPath1)"
     style="fill:#000000;fill-rule:nonzero;fill-opacity:1;stroke:none;" />
  <path
     id="path63"
     d="  M 58.38649,81.182362   L 58.38649,81.182362   C 58.159845,81.182362 57.920607,81.182362 57.656187,81.182362   C 56.661464,81.131868 55.679332,81.056126 54.760157,80.92989   C 54.60906,80.904643 54.483145,80.75316 54.508328,80.6143   C 54.52092,80.43757 54.672017,80.336581 54.835705,80.361828   C 55.742289,80.488064 56.711829,80.563806 57.668779,80.6143   C 59.418988,80.677418 60.514443,80.525935 60.904778,80.147227   C 61.018101,80.046238 61.055875,79.920003 61.055875,79.768519   C 61.055875,79.326693 60.615175,79.225705 60.5774,79.225705   C 60.426303,79.200457 60.325572,79.048974 60.338163,78.910115   C 60.363346,78.733384 60.514443,78.632395 60.652949,78.670266   C 60.992918,78.720761 61.62249,79.011103 61.62249,79.768519   C 61.62249,80.058862 61.496575,80.336581 61.282521,80.551182   C 60.841821,80.993008 59.897463,81.182362 58.38649,81.182362   z "
     clip-path="url(#clipEmfPath1)"
     style="fill:#000000;fill-rule:nonzero;fill-opacity:1;stroke:none;" />
  <path
     id="path65"
     d="  M 57.467316,83.404116   L 57.467316,83.404116   C 56.97625,83.404116 56.535549,83.366245 56.157806,83.328374   L 56.0193,83.303127   C 53.727659,82.96229 50.265014,82.444722 46.877918,80.29871   C 46.777186,80.235592 46.739412,80.109356 46.777186,79.98312   L 49.031053,72.206984   C 49.068828,72.105995 49.131785,72.042877 49.232516,72.005006   C 49.232516,72.005006 50.919769,71.56318 53.060313,70.490174   C 54.319457,69.858994 55.364546,69.8085 55.84302,70.401809   C 56.208172,70.818388 56.120032,71.500062 55.654149,72.105995   C 55.04976,72.901282 54.042445,73.469344 53.375099,73.784934   C 54.130585,74.024782 55.591192,74.340372 57.819876,74.378243   C 60.388529,74.40349 61.584715,74.630715 62.06319,75.173529   C 62.277244,75.388131 62.352793,75.678473 62.315019,76.044558   C 62.289836,76.208665 62.214287,76.461136 61.912093,76.700985   C 61.030692,77.407906 58.726459,77.584637 55.452686,77.205929   C 55.276406,77.180682 55.175674,77.029198 55.200857,76.890339   C 55.213449,76.738856 55.339363,76.61262 55.515643,76.637867   C 60.023377,77.180682 61.282521,76.486384 61.584715,76.246535   C 61.685447,76.170794 61.748404,76.057181 61.748404,75.98144   C 61.773587,75.792086 61.748404,75.66585 61.647672,75.539614   C 61.181789,75.03467 59.356031,74.946305 57.819876,74.921057   C 54.193542,74.883187 52.556655,74.100524 52.493698,74.0879   C 52.380375,74.024782 52.317418,73.91117 52.342601,73.810181   C 52.342601,73.709192 52.405558,73.59558 52.50629,73.557709   C 52.531473,73.557709 54.357231,72.863411 55.213449,71.765158   C 55.515643,71.373826 55.591192,70.969871 55.40232,70.75527   C 55.200857,70.490174 54.508328,70.376562 53.312142,70.995118   C 51.4612,71.916641 49.988002,72.383714 49.534711,72.50995   L 47.368984,79.932626   C 50.5798,81.939778 53.891348,82.419475 56.094849,82.735065   L 56.245946,82.760312   C 57.668779,82.96229 59.683408,82.798183 60.464077,82.167003   C 60.652949,82.01552 60.766272,81.87666 60.766272,81.687306   C 60.778863,81.510576 60.741089,81.371716 60.652949,81.258104   C 60.48926,81.06875 60.149292,81.030879 60.149292,81.030879   C 59.998194,81.030879 59.87228,80.879396 59.897463,80.740536   C 59.897463,80.589053 60.04856,80.462817 60.187066,80.488064   C 60.262614,80.488064 60.766272,80.525935 61.081058,80.904643   C 61.269929,81.119244 61.345478,81.38434 61.332887,81.725177   C 61.307704,82.066014 61.144015,82.356357 60.829229,82.608829   C 60.111517,83.202138 58.701276,83.404116 57.467316,83.404116   z "
     clip-path="url(#clipEmfPath1)"
     style="fill:#000000;fill-rule:nonzero;fill-opacity:1;stroke:none;" />
  <path
     id="path67"
     d="  M 52.065589,78.443041   L 52.065589,78.443041   C 52.002632,78.443041 51.939675,78.417794 51.876718,78.379923   C 51.775986,78.278935 51.750804,78.102204 51.864126,77.975968   C 53.135862,76.486384 52.367784,73.936417 52.342601,73.91117   C 52.304827,73.77231 52.380375,73.59558 52.531473,73.557709   C 52.68257,73.519838 52.821076,73.59558 52.884033,73.747063   C 52.909216,73.848052 53.765433,76.61262 52.279644,78.354676   C 52.216687,78.417794 52.153729,78.443041 52.065589,78.443041   z "
     clip-path="url(#clipEmfPath1)"
     style="fill:#000000;fill-rule:nonzero;fill-opacity:1;stroke:none;" />
  <path
     id="path69"
     d="  M 25.258421,119.29301   L 25.258421,119.29301   L 19.340446,119.29301   C 19.176758,119.29301 19.050843,119.16677 19.050843,119.01529   C 19.050843,118.85118 19.176758,118.72494 19.340446,118.72494   L 25.258421,118.72494   C 25.409519,118.72494 25.535433,118.85118 25.535433,119.01529   C 25.535433,119.16677 25.409519,119.29301 25.258421,119.29301   z "
     clip-path="url(#clipEmfPath1)"
     style="fill:#000000;fill-rule:nonzero;fill-opacity:1;stroke:none;" />
  <path
     id="path71"
     d="  M 25.258421,120.87096   L 25.258421,120.87096   L 19.340446,120.87096   C 19.176758,120.87096 19.050843,120.75734 19.050843,120.59324   C 19.050843,120.44175 19.176758,120.31552 19.340446,120.31552   L 25.258421,120.31552   C 25.409519,120.31552 25.535433,120.44175 25.535433,120.59324   C 25.535433,120.75734 25.409519,120.87096 25.258421,120.87096   z "
     clip-path="url(#clipEmfPath1)"
     style="fill:#000000;fill-rule:nonzero;fill-opacity:1;stroke:none;" />
  <path
     id="path73"
     d="  M 25.258421,122.47415   L 25.258421,122.47415   L 19.340446,122.47415   C 19.176758,122.47415 19.050843,122.34792 19.050843,122.19643   C 19.050843,122.03233 19.176758,121.90609 19.340446,121.90609   L 25.258421,121.90609   C 25.409519,121.90609 25.535433,122.03233 25.535433,122.19643   C 25.535433,122.34792 25.409519,122.47415 25.258421,122.47415   z "
     clip-path="url(#clipEmfPath1)"
     style="fill:#000000;fill-rule:nonzero;fill-opacity:1;stroke:none;" />
  <path
     id="path75"
     d="  M 50.856812,114.97574   L 50.856812,114.97574   L 55.654149,111.50425   z "
     clip-path="url(#clipEmfPath1)"
     style="fill:#3da5a5;fill-rule:nonzero;fill-opacity:1;stroke:none;" />
  <path
     id="path77"
     d="  M 50.856812,115.25345   L 50.856812,115.25345   C 50.768671,115.25345 50.680531,115.20296 50.617574,115.13984   C 50.542026,115.01361 50.554617,114.82425 50.680531,114.74851   L 55.49046,111.28964   C 55.616374,111.18866 55.805246,111.22653 55.893386,111.35276   C 55.968935,111.479 55.956343,111.65573 55.830429,111.73147   L 51.0205,115.20296   C 50.957543,115.22821 50.894586,115.25345 50.856812,115.25345   z "
     clip-path="url(#clipEmfPath1)"
     style="fill:#000000;fill-rule:nonzero;fill-opacity:1;stroke:none;" />
  <path
     id="path79"
     d="  M 51.775986,116.26334   L 51.775986,116.26334   L 56.585915,112.80448   z "
     clip-path="url(#clipEmfPath1)"
     style="fill:#3da5a5;fill-rule:nonzero;fill-opacity:1;stroke:none;" />
  <path
     id="path81"
     d="  M 51.775986,116.52844   L 51.775986,116.52844   C 51.687846,116.52844 51.587115,116.51581 51.549341,116.42745   C 51.4612,116.30121 51.486383,116.13711 51.612298,116.02349   L 56.409635,112.57725   C 56.535549,112.48889 56.724421,112.51413 56.812561,112.64037   C 56.900701,112.76661 56.875518,112.93071 56.749604,113.04433   L 51.927084,116.49057   C 51.876718,116.52844 51.813761,116.52844 51.775986,116.52844   z "
     clip-path="url(#clipEmfPath1)"
     style="fill:#000000;fill-rule:nonzero;fill-opacity:1;stroke:none;" />
  <path
     id="path83"
     d="  M 52.695161,117.53833   L 52.695161,117.53833   L 57.50509,114.09208   z "
     clip-path="url(#clipEmfPath1)"
     style="fill:#3da5a5;fill-rule:nonzero;fill-opacity:1;stroke:none;" />
  <path
     id="path85"
     d="  M 52.695161,117.84129   L 52.695161,117.84129   C 52.59443,117.84129 52.50629,117.7908 52.468515,117.71506   C 52.367784,117.58882 52.405558,117.41209 52.531473,117.33635   L 57.341401,113.86486   C 57.467316,113.77649 57.656187,113.80174 57.731736,113.92798   C 57.819876,114.05421 57.794693,114.24357 57.668779,114.31931   L 52.846258,117.77817   C 52.808484,117.81605 52.745527,117.84129 52.695161,117.84129   z "
     clip-path="url(#clipEmfPath1)"
     style="fill:#000000;fill-rule:nonzero;fill-opacity:1;stroke:none;" />
  <path
     id="path87"
     d="  M 33.342124,40.521751   L 33.342124,40.521751   C 32.309626,41.443274 31.100848,41.986089 29.816521,42.112325   C 29.53951,42.137572 29.413595,41.784111 29.652833,41.632628   C 30.483867,41.064566 31.201579,40.332397 31.743011,39.423498   C 32.422949,38.325245 30.723105,37.365852 30.06835,38.438858   C 29.350638,39.587605 28.217409,40.433386 26.895308,40.723729   C 27.273051,40.206161 27.461923,39.549734 27.26046,38.880684   C 26.882717,37.74456 25.623573,37.302734 24.528118,37.492088   C 23.49562,37.681442 22.740134,38.476728 22.463122,39.486616   C 21.946874,41.468521 23.961503,42.074454 24.591075,42.011336   C 24.666624,42.011336 24.729581,42.011336 24.80513,41.986089   C 23.974095,42.743505 23.017146,43.273696 21.896508,43.551415   C 20.68773,43.867005 21.203979,45.760545 22.425348,45.444955   C 22.513488,45.419708 22.589037,45.39446 22.677177,45.381837   C 22.148337,45.823663 21.569131,46.202371 20.95215,46.543208   C 19.818921,47.123893 20.813644,48.815456 21.946874,48.222147   C 22.362391,48.007545 22.765317,47.780321 23.14306,47.502601   C 22.866048,47.868686 22.576445,48.222147 22.26166,48.537736   C 21.380259,49.446636 22.765317,50.835231 23.646718,49.926332   C 25.321379,48.247394 26.290919,46.139253 26.580522,43.77864   C 26.580522,43.715522 26.580522,43.677651 26.580522,43.627157   C 29.438778,44.573927 32.397766,43.993241 34.727182,41.910347   C 35.671539,41.064566 34.286481,39.67597 33.342124,40.521751   z "
     clip-path="url(#clipEmfPath1)"
     style="fill:#00747a;fill-rule:nonzero;fill-opacity:1;stroke:none;" />
  <path
     id="path89"
     d="  M 24.339247,42.478409   L 24.339247,42.478409   C 24.225924,42.478409 24.125192,42.415291 24.087418,42.301679   C 24.024461,42.162819 24.087418,41.986089 24.225924,41.922971   C 24.868087,41.657875 26.580522,40.837341 27.071588,40.30715   C 27.17232,40.206161 27.361191,40.206161 27.461923,40.30715   C 27.587837,40.408139 27.587837,40.584869 27.487106,40.711105   C 26.819759,41.418027 24.540709,42.390044 24.465161,42.427915   C 24.414795,42.453162 24.377021,42.478409 24.339247,42.478409   z "
     clip-path="url(#clipEmfPath1)"
     style="fill:#000000;fill-rule:nonzero;fill-opacity:1;stroke:none;" />
  <path
     id="path91"
     d="  M 35.986325,72.82554   L 35.986325,72.82554   L 39.159367,63.736549   L 35.986325,58.611368   L 35.142699,71.436944   L 35.986325,72.82554   z "
     clip-path="url(#clipEmfPath1)"
     style="fill:#000000;fill-rule:nonzero;fill-opacity:1;stroke:none;" />
  <path
     id="path93"
     d="  M 23.835589,71.436944   L 23.835589,71.436944   L 26.076865,61.464301   L 23.621535,66.589482   L 23.835589,71.436944   z "
     clip-path="url(#clipEmfPath1)"
     style="fill:#000000;fill-rule:nonzero;fill-opacity:1;stroke:none;" />
  <path
     id="path95"
     d="  M 56.460001,13.936453   L 56.460001,13.936453   L 49.534711,13.936453   L 49.534711,13.242155   L 56.460001,13.242155   L 56.460001,13.936453   z "
     clip-path="url(#clipEmfPath1)"
     style="fill:#000000;fill-rule:nonzero;fill-opacity:1;stroke:none;" />
  <path
     id="path97"
     d="  M 53.765433,15.299801   L 53.765433,15.299801   L 47.809684,15.299801   L 47.809684,14.605504   L 53.765433,14.605504   L 53.765433,15.299801   z "
     clip-path="url(#clipEmfPath1)"
     style="fill:#000000;fill-rule:nonzero;fill-opacity:1;stroke:none;" />
  <path
     id="path99"
     d="  M 56.460001,12.573104   L 56.460001,12.573104   L 47.809684,12.573104   L 47.809684,11.878806   L 56.460001,11.878806   L 56.460001,12.573104   z "
     clip-path="url(#clipEmfPath1)"
     style="fill:#00747a;fill-rule:nonzero;fill-opacity:1;stroke:none;" />
  <path
     id="path101"
     d="  M 56.371861,11.197132   L 56.371861,11.197132   L 50.416111,11.197132   L 50.416111,10.502834   L 56.371861,10.502834   L 56.371861,11.197132   z "
     clip-path="url(#clipEmfPath1)"
     style="fill:#000000;fill-rule:nonzero;fill-opacity:1;stroke:none;" />
  <path
     id="path103"
     d="  M 43.276767,6.5768949   L 43.276767,6.5768949   C 41.891709,5.3271586 39.97781,4.5571191 37.862449,4.5571191   C 33.631727,4.5571191 30.194264,7.6499007 30.194264,11.449604   C 30.194264,15.287178 33.631727,18.37996 37.862449,18.37996   C 42.08058,18.37996 45.518042,15.287178 45.518042,11.449604   C 45.518042,9.5560641 44.661825,7.8392547 43.276767,6.5768949   z "
     clip-path="url(#clipEmfPath1)"
     style="fill:#000000;fill-rule:nonzero;fill-opacity:1;stroke:none;" />
  <path
     id="path105"
     d="  M 37.862449,4.8474618   L 37.862449,4.8474618   C 33.782824,4.8474618 30.483867,7.8140075 30.483867,11.449604   C 30.483867,15.110447 33.782824,18.089617 37.862449,18.089617   C 41.929483,18.089617 45.228439,15.110447 45.228439,11.449604   C 45.228439,9.7075473 44.472953,8.0412323 43.087895,6.7788724   C 41.677654,5.5417598 39.826713,4.8474618 37.862449,4.8474618   z  M 37.862449,18.657679   L 37.862449,18.657679   C 33.493221,18.657679 29.917253,15.426037 29.917253,11.449604   C 29.917253,7.4984175 33.493221,4.2793999 37.862449,4.2793999   C 39.97781,4.2793999 41.954666,5.0115686 43.465638,6.3622937   C 44.951428,7.7256423 45.795054,9.5434405 45.795054,11.449604   C 45.795054,15.426037 42.219086,18.657679 37.862449,18.657679   z "
     clip-path="url(#clipEmfPath1)"
     style="fill:#000000;fill-rule:nonzero;fill-opacity:1;stroke:none;" />
  <path
     id="path107"
     d="  M 43.276767,6.0719509   L 43.276767,6.0719509   C 41.891709,4.8222147 39.97781,4.0521751 37.862449,4.0521751   C 33.631727,4.0521751 30.194264,7.1449568 30.194264,10.94466   C 30.194264,14.782234 33.631727,17.849768 37.862449,17.849768   C 42.08058,17.849768 45.518042,14.782234 45.518042,10.94466   L 37.862449,10.94466   L 43.276767,6.0719509   z "
     clip-path="url(#clipEmfPath1)"
     style="fill:#00747a;fill-rule:nonzero;fill-opacity:1;stroke:none;" />
  <path
     id="path109"
     d="  M 37.862449,4.3172707   L 37.862449,4.3172707   C 33.782824,4.3172707 30.483867,7.3090636 30.483867,10.94466   C 30.483867,14.605504 33.782824,17.584673 37.862449,17.584673   C 41.828752,17.584673 45.052159,14.756987 45.228439,11.247626   L 37.862449,11.247626   C 37.736535,11.247626 37.623212,11.159261 37.585438,11.058272   C 37.560255,10.94466 37.585438,10.818424 37.673578,10.742682   L 42.848658,6.0719509   C 41.488783,4.9484506 39.725982,4.3172707 37.862449,4.3172707   z  M 37.862449,18.152735   L 37.862449,18.152735   C 33.493221,18.152735 29.917253,14.921094 29.917253,10.94466   C 29.917253,6.9934736 33.493221,3.774456 37.862449,3.774456   C 39.97781,3.774456 41.954666,4.5066247 43.465638,5.8573497   C 43.503413,5.9204677 43.541187,5.9835857 43.541187,6.0719509   C 43.541187,6.1476925 43.503413,6.2360577 43.465638,6.2739285   L 38.592752,10.679564   L 45.518042,10.679564   C 45.66914,10.679564 45.795054,10.8058 45.795054,10.94466   C 45.795054,14.921094 42.219086,18.152735 37.862449,18.152735   z "
     clip-path="url(#clipEmfPath1)"
     style="fill:#000000;fill-rule:nonzero;fill-opacity:1;stroke:none;" />
  <path
     id="path111"
     d="  M 37.862449,10.94466   L 37.862449,10.94466   L 45.518042,10.94466   C 45.518042,9.0511202 44.661825,7.3343108 43.276767,6.0719509   L 37.862449,10.94466   z "
     clip-path="url(#clipEmfPath1)"
     style="fill:#ffffff;fill-rule:nonzero;fill-opacity:1;stroke:none;" />
  <path
     id="path113"
     d="  M 38.592752,10.679564   L 38.592752,10.679564   L 45.228439,10.679564   C 45.140299,9.1016146 44.472953,7.5994063 43.276767,6.4506589   L 38.592752,10.679564   z  M 45.518042,11.247626   L 45.518042,11.247626   L 37.862449,11.247626   C 37.736535,11.247626 37.623212,11.159261 37.61062,11.058272   C 37.560255,10.94466 37.585438,10.818424 37.673578,10.742682   L 43.087895,5.8573497   C 43.188627,5.7689845 43.352315,5.7689845 43.465638,5.8573497   C 44.951428,7.2206984 45.795054,9.0384966 45.795054,10.94466   C 45.795054,11.12139 45.66914,11.247626 45.518042,11.247626   z "
     clip-path="url(#clipEmfPath1)"
     style="fill:#000000;fill-rule:nonzero;fill-opacity:1;stroke:none;" />
</svg>
