<svg width="197" height="59" viewBox="0 0 197 59" fill="none" xmlns="http://www.w3.org/2000/svg">
    <path d="M126.511 29.986c.536 0 .993-.014 1.449.004 2.498.09 4.439-.996 5.943-2.892 3.007-3.781 2.619-9.603-.84-12.893-1.387-1.322-3.037-2.013-4.968-2.013-4.006.003-8.012-.004-12.017.003-1.114 0-1.121.01-1.121 1.18 0 14.252 0 28.508-.004 42.76 0 1.813.211 1.533-1.494 1.547-1.917.017-3.84-.025-5.756.02-.668.014-.914-.21-.841-.85.024-.208.003-.42.003-.623 0-17.38-.003-34.76.004-52.14 0-1.611-.184-1.39 1.39-1.393 6.469-.01 12.935.038 19.404-.018 5.151-.045 9.198 2.086 12.308 6.054 3.145 4.01 4.383 8.642 4.082 13.692-.277 4.646-1.889 8.76-5.057 12.215a15.533 15.533 0 0 1-4.909 3.598c-.388.18-.658.228-.969-.145-2.172-2.585-4.366-5.151-6.545-7.736-.045-.051-.028-.148-.062-.37zM196.963 2.689c-.384 2.248-1.498 3.902-3.137 5.223-1.958 1.581-4.259 2.425-6.663 3.013-3.916.959-7.908 1.173-11.917 1.242-1.72.031-1.481-.218-1.484 1.564-.007 14.086-.004 28.17-.004 42.255 0 .25.004.499 0 .748-.021.93-.021.94-.979.944-2.044.007-4.089.007-6.133 0-1-.003-1.003-.017-1.014-1.051-.01-1.166-.003-2.336-.003-3.501V13.997c0-.249.003-.498 0-.747-.014-1.069-.018-1.08-1.104-1.08-4.756-.003-9.513 0-14.27 0-.29 0-.584-.013-.875 0-.436.022-.598-.2-.581-.608.01-.25 0-.498 0-.747 0-2.249-.003-4.5 0-6.753.004-1.553-.159-1.366 1.436-1.37 5.424-.007 10.848-.003 16.272-.003h30.456z" fill="#214332"/>
    <path d="M21.887 58.975c-.131-.446.076-.698.18-.961C27.21 45.12 32.358 32.224 37.53 19.345c1.467-3.656 3.134-7.223 5.203-10.578 1.11-1.806 2.335-3.522 3.847-5.002 1.59-1.56 3.393-2.733 5.631-3.093A7.213 7.213 0 0 1 53.958.61c.772.059.855.2.557.951-.91 2.325-1.837 4.642-2.757 6.964-6.52 16.4-13.038 32.801-19.559 49.202-.08.197-.173.387-.225.591-.145.55-.49.678-1.024.675-2.21-.028-4.424-.01-6.631-.01-.827-.008-1.65-.008-2.432-.008z" fill="#00747A"/>
    <path d="M21.271 56.644C14.197 38.517 7.233 20.667.214 2.685H4.59c1.543 0 3.09.063 4.629-.027.837-.049 1.048.401 1.283 1.01 1.986 5.12 3.986 10.232 5.985 15.345 3.145 8.06 6.279 16.124 9.447 24.174.308.785.34 1.453 0 2.245-1.48 3.484-2.895 6.995-4.334 10.496-.062.156-.135.297-.329.716z" fill="#214332"/>
    <path d="M125.255 30.166c.422.17.619.553.882.861 7.292 8.614 14.577 17.235 21.866 25.852.083.097.156.197.242.284.44.422.253.695-.193.95-1.519.876-3.141 1.066-4.83.714-1.954-.405-3.66-1.357-5.275-2.488-2.712-1.899-5.082-4.179-7.292-6.624-3.722-4.107-7.206-8.417-10.831-12.603-.35-.404-.485-.674-.049-1.138 1.744-1.847 3.449-3.732 5.168-5.604.087-.08.208-.135.312-.204z" fill="#00747A"/>
    <path d="M60.261 35.276V14.398c0-.29.014-.584 0-.875-.02-.405.121-.609.564-.609 2.335.014 4.674.007 7.009.004.356 0 .543.138.529.508-.01.291 0 .585 0 .876 0 3.625-.004 7.25.003 10.876.004.944.021.961.969.965 5.341.007 10.679.003 16.02.003.336 0 .668.007 1.003.004.367-.007.516.17.516.533-.007 2.082-.01 4.168.003 6.25.004.433-.18.602-.595.582-.29-.014-.584 0-.875 0H69.888c-.249 0-.501.024-.75-.004-.616-.066-.789.218-.779.8.028 2.168.01 4.334.01 6.5 0 2.168-.006 4.334.004 6.5.004.882.018.899.879.906 2.21.01 4.425.003 6.635.003h18.148c.21 0 .422.024.622-.003.647-.09.875.162.868.827-.03 2.04 0 4.082-.02 6.123-.007.788.335 1.791-.149 2.303-.543.578-1.584.198-2.404.201-10.43.017-20.86.014-31.29.007-1.522 0-1.397.218-1.397-1.404-.004-6.999-.004-14-.004-20.998z" fill="#214332"/>
    <path d="M98.266 2.779c-.2 1.66-1.027 2.93-2.138 4.037-1.321 1.314-2.926 2.193-4.639 2.881-3.355 1.35-6.877 1.969-10.46 2.249-5.83.463-11.669.145-17.501.228-.996.018-1.993.004-2.968.004-.19-.357.083-.502.231-.671 2.429-2.747 4.875-5.477 7.3-8.227.352-.401.716-.602 1.28-.602 9.502.021 19.012.018 28.515.021.083.004.166.035.38.08z" fill="#00747A"/>
</svg>
